<svg width="28" height="28" viewBox="0 0 28 28" fill="none" xmlns="http://www.w3.org/2000/svg">
<path d="M12.7464 5.5253C13.141 4.3109 14.859 4.3109 15.2536 5.5253L16.6634 9.86431C16.8399 10.4074 17.346 10.7751 17.917 10.7751H22.4793C23.7562 10.7751 24.2872 12.4091 23.2541 13.1596L19.5631 15.8413C19.1012 16.1769 18.9078 16.7719 19.0843 17.315L20.4941 21.654C20.8887 22.8684 19.4988 23.8782 18.4657 23.1277L14.7748 20.446C14.3128 20.1104 13.6872 20.1104 13.2252 20.446L9.53425 23.1277C8.50121 23.8782 7.11128 22.8684 7.50586 21.654L8.91569 17.315C9.09215 16.7719 8.89884 16.1769 8.43685 15.8413L4.74587 13.1596C3.71284 12.4091 4.24375 10.7751 5.52065 10.7751H10.0829C10.654 10.7751 11.1601 10.4074 11.3366 9.86431L12.7464 5.5253Z" fill="#00C160"/>
</svg>
