<svg width="80" height="80" viewBox="0 0 80 80" fill="none" xmlns="http://www.w3.org/2000/svg">
<path d="M78.7917 39.7088C78.7917 56.1179 65.4904 69.4175 49.0791 69.4175H29.7148V10H49.0791C65.4904 10 78.7917 23.3045 78.7917 39.7088Z" fill="url(#paint0_linear_2181_677)"/>
<path d="M41.4231 61.4009C41.6905 64.1639 42.5571 66.7188 43.8843 68.9618C43.9685 69.1153 44.0626 69.2639 44.1567 69.4173H29.7148V41.3574H57.9285C47.8312 42.3378 40.4426 51.3099 41.4231 61.4009Z" fill="#6400E6"/>
<path d="M59.4253 39.7164C59.4253 40.5715 58.7747 41.2812 57.9238 41.3665C48.5011 42.3118 40.377 47.6593 35.6353 55.3211C33.3296 59.0518 31.8223 63.3347 31.3643 67.9227C31.2794 68.7731 30.5696 69.4229 29.7149 69.4229C28.8599 69.4229 28.1505 68.7726 28.0653 67.9219C26.6627 53.9129 15.5165 42.7684 1.50129 41.3661C0.650462 41.281 0 40.5717 0 39.7167C0 38.8617 0.650503 38.1521 1.50136 38.0671C15.521 36.6652 26.6634 25.5244 28.0654 11.5065C28.1505 10.6558 28.8599 10.0054 29.715 10.0054C30.5701 10.0054 31.2797 10.6558 31.3649 11.5065C32.767 25.52 43.909 36.6647 57.924 38.067C58.7748 38.1522 59.4253 38.8615 59.4253 39.7164Z" fill="url(#paint1_linear_2181_677)"/>
<defs>
<linearGradient id="paint0_linear_2181_677" x1="54.2533" y1="69.4175" x2="54.2533" y2="10" gradientUnits="userSpaceOnUse">
<stop stop-color="#6400E6"/>
<stop offset="0.00798" stop-color="#6501E6"/>
<stop offset="0.21029" stop-color="#8A25EF"/>
<stop offset="0.41265" stop-color="#A741F6"/>
<stop offset="0.61287" stop-color="#BC55FB"/>
<stop offset="0.80988" stop-color="#C861FE"/>
<stop offset="1" stop-color="#CD66FF"/>
</linearGradient>
<linearGradient id="paint1_linear_2181_677" x1="14.5141" y1="54.9133" x2="44.9098" y2="24.5136" gradientUnits="userSpaceOnUse">
<stop stop-color="#CD66FF"/>
<stop offset="1" stop-color="#FFB3FF"/>
</linearGradient>
</defs>
</svg>
