<svg width="20" height="20" viewBox="0 0 20 20" fill="none" xmlns="http://www.w3.org/2000/svg">
<path d="M1.875 1.875C1.52982 1.875 1.25 2.15482 1.25 2.5C1.25 2.84518 1.52982 3.125 1.875 3.125H3.02974C3.17132 3.125 3.29521 3.22019 3.33169 3.35698L5.46313 11.3499C4.11815 11.6988 3.125 12.9209 3.125 14.375C3.125 14.7202 3.40482 15 3.75 15H16.875C17.2202 15 17.5 14.7202 17.5 14.375C17.5 14.0298 17.2202 13.75 16.875 13.75H4.48169C4.73909 13.0218 5.43361 12.5 6.25 12.5H15.5985C15.8376 12.5 16.0557 12.3637 16.1604 12.1488C17.1064 10.2075 17.9319 8.19669 18.6273 6.12605C18.6826 5.96131 18.6668 5.78097 18.5837 5.62833C18.5007 5.47569 18.3578 5.36452 18.1894 5.32152C14.1712 4.29535 9.96135 3.75 5.625 3.75C5.32681 3.75 5.02921 3.75258 4.73223 3.75772L4.53948 3.0349C4.35708 2.35091 3.73762 1.875 3.02974 1.875H1.875Z" fill="#6F3F29"/>
<path d="M3.125 16.875C3.125 16.1846 3.68464 15.625 4.375 15.625C5.06536 15.625 5.625 16.1846 5.625 16.875C5.625 17.5654 5.06536 18.125 4.375 18.125C3.68464 18.125 3.125 17.5654 3.125 16.875Z" fill="#6F3F29"/>
<path d="M13.75 16.875C13.75 16.1846 14.3096 15.625 15 15.625C15.6904 15.625 16.25 16.1846 16.25 16.875C16.25 17.5654 15.6904 18.125 15 18.125C14.3096 18.125 13.75 17.5654 13.75 16.875Z" fill="#6F3F29"/>
</svg>
