<svg width="49" height="48" viewBox="0 0 49 48" fill="none" xmlns="http://www.w3.org/2000/svg">
<path d="M22.8393 8.23939C23.4251 7.6536 24.3749 7.6536 24.9607 8.23939L42.3393 25.6181C42.9251 26.2039 43.8749 26.2039 44.4607 25.6181C45.0464 25.0323 45.0464 24.0825 44.4607 23.4967L27.082 6.11807C25.3246 4.36071 22.4754 4.36071 20.718 6.11807L3.33933 23.4967C2.75355 24.0825 2.75355 25.0323 3.33933 25.6181C3.92512 26.2039 4.87487 26.2039 5.46065 25.6181L22.8393 8.23939Z" fill="#33FF99"/>
<path d="M23.9 11.4214L40.218 27.7394C40.2775 27.7988 40.3381 27.8563 40.4 27.9117V40.3074C40.4 42.3785 38.7211 44.0574 36.65 44.0574H29.9C29.0716 44.0574 28.4 43.3858 28.4 42.5574V33.5574C28.4 32.729 27.7284 32.0574 26.9 32.0574H20.9C20.0716 32.0574 19.4 32.729 19.4 33.5574V42.5574C19.4 43.3858 18.7284 44.0574 17.9 44.0574H11.15C9.07893 44.0574 7.39999 42.3785 7.39999 40.3074V27.9117C7.46185 27.8563 7.52254 27.7988 7.58197 27.7394L23.9 11.4214Z" fill="#33FF99"/>
</svg>
