<svg width="16" height="16" viewBox="0 0 16 16" fill="none" xmlns="http://www.w3.org/2000/svg">
<path d="M7.28355 3.15742C7.50903 2.46348 8.49078 2.46348 8.71625 3.15742L9.52187 5.63685C9.6227 5.94719 9.91191 6.15731 10.2382 6.15731H12.8452C13.5749 6.15731 13.8783 7.09101 13.288 7.51989L11.1788 9.05226C10.9149 9.24406 10.8044 9.58404 10.9052 9.89438L11.7108 12.3738C11.9363 13.0678 11.1421 13.6448 10.5518 13.2159L8.44263 11.6836C8.17864 11.4918 7.82117 11.4918 7.55717 11.6836L5.44804 13.2159C4.85774 13.6448 4.06349 13.0678 4.28897 12.3738L5.09458 9.89438C5.19542 9.58404 5.08495 9.24406 4.82096 9.05226L2.71183 7.51989C2.12153 7.09101 2.4249 6.15731 3.15456 6.15731H5.76159C6.0879 6.15731 6.3771 5.94719 6.47794 5.63685L7.28355 3.15742Z" fill="#6366F1"/>
</svg>
