<svg width="49" height="48" viewBox="0 0 49 48" fill="none" xmlns="http://www.w3.org/2000/svg">
<path fill-rule="evenodd" clip-rule="evenodd" d="M17 13.5C17 9.35786 20.3579 6 24.5 6C28.6421 6 32 9.35786 32 13.5C32 17.6421 28.6421 21 24.5 21C20.3579 21 17 17.6421 17 13.5Z" fill="#33FF99"/>
<path fill-rule="evenodd" clip-rule="evenodd" d="M32 19.5C32 16.1863 34.6863 13.5 38 13.5C41.3137 13.5 44 16.1863 44 19.5C44 22.8137 41.3137 25.5 38 25.5C34.6863 25.5 32 22.8137 32 19.5Z" fill="#33FF99"/>
<path fill-rule="evenodd" clip-rule="evenodd" d="M5 19.5C5 16.1863 7.68629 13.5 11 13.5C14.3137 13.5 17 16.1863 17 19.5C17 22.8137 14.3137 25.5 11 25.5C7.68629 25.5 5 22.8137 5 19.5Z" fill="#33FF99"/>
<path fill-rule="evenodd" clip-rule="evenodd" d="M13.1197 30.235C15.5157 26.4888 19.7167 24 24.5 24C29.2839 24 33.4854 26.4894 35.8812 30.2364C37.5375 32.8268 38.2541 35.9504 37.9179 38.9958C37.8654 39.4718 37.5888 39.894 37.1735 40.1323C33.4388 42.2752 29.1102 43.5 24.5 43.5C19.8898 43.5 15.5612 42.2752 11.8265 40.1323C11.4112 39.894 11.1346 39.4718 11.0821 38.9958C10.7459 35.9498 11.4628 32.8257 13.1197 30.235Z" fill="#33FF99"/>
<path d="M10.6646 28.5074C10.6405 28.5444 10.6165 28.5815 10.5928 28.6187C8.66183 31.6378 7.77816 35.2334 8.04943 38.778C6.83334 38.5933 5.65339 38.2962 4.52086 37.8973L4.29094 37.8164C3.87152 37.6687 3.57845 37.2878 3.54318 36.8445L3.52385 36.6015C3.50803 36.4028 3.5 36.2022 3.5 36C3.5 31.9703 6.67809 28.6828 10.6646 28.5074Z" fill="#33FF99"/>
<path d="M40.9513 38.7779C41.2225 35.234 40.3392 31.6391 38.409 28.6204C38.3849 28.5826 38.3606 28.5449 38.3362 28.5074C42.3223 28.6832 45.5 31.9705 45.5 36C45.5 36.2022 45.492 36.4028 45.4762 36.6015L45.4568 36.8445C45.4215 37.2878 45.1285 37.6687 44.7091 37.8164L44.4791 37.8973C43.3468 38.2961 42.1671 38.5932 40.9513 38.7779Z" fill="#33FF99"/>
</svg>
