<svg width="33" height="32" viewBox="0 0 33 32" fill="none" xmlns="http://www.w3.org/2000/svg">
<path d="M21.8329 11C22.3852 11 22.8329 11.4477 22.8329 12C22.8329 13.4935 22.1769 14.835 21.1405 15.7497C20.7264 16.1152 20.0945 16.0758 19.729 15.6617C19.3636 15.2477 19.403 14.6157 19.817 14.2503C20.4415 13.6991 20.8329 12.8959 20.8329 12C20.8329 11.4477 21.2807 11 21.8329 11Z" fill="#6F3F29"/>
<path fill-rule="evenodd" clip-rule="evenodd" d="M16.8333 3C9.65355 3 3.83325 8.8203 3.83325 16C3.83325 23.1797 9.65355 29 16.8333 29C24.013 29 29.8333 23.1797 29.8333 16C29.8333 8.8203 24.013 3 16.8333 3ZM6.93312 20.8003C8.71586 24.4702 12.4791 27 16.8333 27C17.7163 27 18.575 26.896 19.3978 26.6995C19.0152 25.6804 18.0391 25 16.9437 25C16.3029 25 15.756 24.5367 15.6507 23.9047L15.5534 23.321C15.428 22.5685 15.8874 21.8417 16.6209 21.6321L17.9392 21.2554C18.5089 21.0927 18.9841 20.6983 19.2491 20.1684L19.2977 20.071C19.6259 19.4146 20.2968 19 21.0307 19C21.5446 19 22.0374 19.2041 22.4007 19.5675L22.8333 20H23.671C24.7891 20 25.7986 20.6195 26.3143 21.581C27.2795 19.9449 27.8333 18.0371 27.8333 16C27.8333 10.2691 23.4506 5.56176 17.8541 5.04674C17.9132 5.39737 18.0957 5.71867 18.373 5.94977L19.7978 7.13712C20.3867 7.62786 20.5108 8.48367 20.0856 9.1215L19.4042 10.1436C19.0342 10.6986 18.4896 11.1145 17.8568 11.3255L17.6671 11.3887C16.7435 11.6966 16.3655 12.7984 16.9055 13.6084C17.3981 14.3473 17.1316 15.3508 16.3373 15.748L12.8333 17.5L13.3978 18.9113C13.6439 19.5267 13.3773 20.228 12.7845 20.5244C12.2336 20.7998 11.5647 20.6419 11.1951 20.1492L10.2895 18.9416C9.62044 18.0496 8.24652 18.1735 7.74784 19.1708L6.93312 20.8003Z" fill="#6F3F29"/>
</svg>
