<svg width="33" height="32" viewBox="0 0 33 32" fill="none" xmlns="http://www.w3.org/2000/svg">
<path d="M15.3 3.1001C15.3 2.27167 15.9716 1.6001 16.8 1.6001C17.6285 1.6001 18.3 2.27167 18.3 3.1001V14.0586C18.99 14.2748 19.6611 14.5676 20.3 14.937V5.1001C20.3 4.27167 20.9716 3.6001 21.8 3.6001C22.6285 3.6001 23.3 4.27167 23.3 5.1001V19.6831C21.4096 20.0002 19.8188 21.2014 18.9675 22.8471C20.5739 22.0489 22.3846 21.6001 24.3 21.6001C24.8523 21.6001 25.3 21.1524 25.3 20.6001V17.6001L25.3001 17.5783C25.3056 16.4362 25.7453 15.2909 26.6181 14.4181C27.2038 13.8323 28.1536 13.8323 28.7394 14.4181C29.3252 15.0039 29.3252 15.9536 28.7394 16.5394C28.448 16.8308 28.3019 17.2091 28.3001 17.5928L28.3 17.6001L28.3 21.6001H28.2939C28.2152 23.6078 27.3831 25.5171 25.9569 26.9432L23.6432 29.257C22.1429 30.7572 20.1081 31.6001 17.9863 31.6001H15.3C9.7772 31.6001 5.30005 27.1229 5.30005 21.6001V9.1001C5.30005 8.27167 5.97162 7.6001 6.80005 7.6001C7.62848 7.6001 8.30005 8.27167 8.30005 9.1001V16.4587C8.91442 15.8562 9.58725 15.349 10.3 14.937V5.1001C10.3 4.27167 10.9716 3.6001 11.8 3.6001C12.6285 3.6001 13.3 4.27167 13.3 5.1001V13.801C13.9594 13.6671 14.6297 13.6001 15.3 13.6001V3.1001Z" fill="#6F3F29"/>
</svg>
