<svg width="49" height="48" viewBox="0 0 49 48" fill="none" xmlns="http://www.w3.org/2000/svg">
<path d="M22.7 4.65003C22.7 3.40738 23.7074 2.40002 24.95 2.40002C26.1926 2.40002 27.2 3.40738 27.2 4.65002V21.0877C28.2349 21.4121 29.2415 21.8513 30.2 22.4053V7.65003C30.2 6.40738 31.2074 5.40002 32.45 5.40002C33.6926 5.40002 34.7 6.40738 34.7 7.65002V29.5245C31.8643 30.0002 29.4782 31.802 28.2012 34.2705C30.6108 33.0732 33.3268 32.4 36.2 32.4C37.0284 32.4 37.7 31.7285 37.7 30.9V26.4L37.7001 26.3673C37.7083 24.6541 38.3678 22.9362 39.677 21.627C40.5557 20.7484 41.9803 20.7484 42.859 21.627C43.7377 22.5057 43.7377 23.9303 42.859 24.809C42.4219 25.2461 42.2028 25.8135 42.2 26.389L42.1999 26.4L42.2 32.4H42.1908C42.0727 35.4116 40.8246 38.2755 38.6853 40.4147L35.2147 43.8853C32.9643 46.1357 29.912 47.4 26.7294 47.4H22.7C14.4157 47.4 7.7 40.6843 7.7 32.4V13.65C7.7 12.4074 8.70736 11.4 9.95 11.4C11.1926 11.4 12.2 12.4074 12.2 13.65V24.6879C13.1216 23.7842 14.1308 23.0233 15.2 22.4053V7.65002C15.2 6.40738 16.2074 5.40002 17.45 5.40002C18.6926 5.40002 19.7 6.40738 19.7 7.65002V20.7014C20.6891 20.5005 21.6945 20.4 22.7 20.4V4.65003Z" fill="#33FF99"/>
</svg>
