<svg width="21" height="20" viewBox="0 0 21 20" fill="none" xmlns="http://www.w3.org/2000/svg">
<path fill-rule="evenodd" clip-rule="evenodd" d="M9.1311 4.75C7.19811 4.75 5.6311 6.317 5.6311 8.25C5.6311 10.183 7.19811 11.75 9.1311 11.75C11.0641 11.75 12.6311 10.183 12.6311 8.25C12.6311 6.317 11.0641 4.75 9.1311 4.75ZM3.8811 8.25C3.8811 5.35051 6.23161 3 9.1311 3C12.0306 3 14.3811 5.35051 14.3811 8.25C14.3811 9.38385 14.0217 10.4338 13.4105 11.292L17.6248 15.5063C17.9665 15.848 17.9665 16.402 17.6248 16.7437C17.2831 17.0854 16.7291 17.0854 16.3874 16.7437L12.1731 12.5294C11.3149 13.1406 10.265 13.5 9.1311 13.5C6.23161 13.5 3.8811 11.1495 3.8811 8.25Z" fill="#1F2937"/>
</svg>
