<svg width="21" height="20" viewBox="0 0 21 20" fill="none" xmlns="http://www.w3.org/2000/svg">
<path fill-rule="evenodd" clip-rule="evenodd" d="M8.75 4.75C6.817 4.75 5.25 6.317 5.25 8.25C5.25 10.183 6.817 11.75 8.75 11.75C10.683 11.75 12.25 10.183 12.25 8.25C12.25 6.317 10.683 4.75 8.75 4.75ZM3.5 8.25C3.5 5.35051 5.85051 3 8.75 3C11.6495 3 14 5.35051 14 8.25C14 9.38385 13.6406 10.4338 13.0294 11.292L17.2437 15.5063C17.5854 15.848 17.5854 16.402 17.2437 16.7437C16.902 17.0854 16.348 17.0854 16.0063 16.7437L11.792 12.5294C10.9338 13.1406 9.88385 13.5 8.75 13.5C5.85051 13.5 3.5 11.1495 3.5 8.25Z" fill="#6F3F29"/>
</svg>
