<svg width="48" height="48" viewBox="0 0 48 48" fill="none" xmlns="http://www.w3.org/2000/svg">
<path d="M21.851 9.47202C22.5274 7.39019 25.4726 7.39019 26.149 9.47202L28.5659 16.9103C28.8684 17.8413 29.736 18.4717 30.7149 18.4717H38.536C40.725 18.4717 41.6351 21.2728 39.8642 22.5594L33.5368 27.1565C32.7448 27.7319 32.4135 28.7519 32.716 29.6829L35.1328 37.1212C35.8092 39.203 33.4265 40.9342 31.6556 39.6475L25.3282 35.0504C24.5362 34.475 23.4638 34.475 22.6718 35.0504L16.3444 39.6475C14.5735 40.9342 12.1908 39.203 12.8672 37.1212L15.284 29.6829C15.5865 28.7519 15.2552 27.7319 14.4632 27.1565L8.13579 22.5594C6.36488 21.2728 7.27501 18.4717 9.46398 18.4717H17.2851C18.264 18.4717 19.1316 17.8413 19.4341 16.9103L21.851 9.47202Z" fill="#00C160"/>
</svg>
