<svg width="16" height="16" viewBox="0 0 16 16" fill="none" xmlns="http://www.w3.org/2000/svg">
<path d="M7.28367 3.15742C7.50915 2.46348 8.4909 2.46348 8.71637 3.15742L9.52199 5.63685C9.62283 5.94719 9.91203 6.15731 10.2383 6.15731H12.8454C13.575 6.15731 13.8784 7.09101 13.2881 7.51989L11.179 9.05226C10.915 9.24406 10.8045 9.58404 10.9053 9.89438L11.711 12.3738C11.9364 13.0678 11.1422 13.6448 10.5519 13.2159L8.44275 11.6836C8.17876 11.4918 7.82129 11.4918 7.5573 11.6836L5.44817 13.2159C4.85786 13.6448 4.06361 13.0678 4.28909 12.3738L5.0947 9.89438C5.19554 9.58404 5.08508 9.24406 4.82108 9.05226L2.71195 7.51989C2.12165 7.09101 2.42503 6.15731 3.15468 6.15731H5.76171C6.08802 6.15731 6.37722 5.94719 6.47806 5.63685L7.28367 3.15742Z" fill="#00C160"/>
</svg>
