<svg width="36" height="36" viewBox="0 0 36 36" fill="none" xmlns="http://www.w3.org/2000/svg">
<path d="M16.3882 7.10414C16.8955 5.54276 19.1045 5.54276 19.6118 7.10414L21.4244 12.6829C21.6513 13.3811 22.302 13.8539 23.0362 13.8539H28.902C30.5438 13.8539 31.2263 15.9547 29.8982 16.9197L25.1526 20.3675C24.5586 20.7991 24.3101 21.564 24.537 22.2623L26.3496 27.841C26.8569 29.4024 25.0699 30.7008 23.7417 29.7358L18.9961 26.2879C18.4022 25.8564 17.5978 25.8564 17.0039 26.2879L12.2583 29.7358C10.9301 30.7008 9.14307 29.4024 9.6504 27.841L11.463 22.2623C11.6899 21.564 11.4414 20.7991 10.8474 20.3675L6.10184 16.9197C4.77366 15.9547 5.45626 13.8539 7.09798 13.8539H12.9638C13.698 13.8539 14.3487 13.3811 14.5756 12.6829L16.3882 7.10414Z" fill="#00C160"/>
</svg>
