<svg width="36" height="36" viewBox="0 0 36 36" fill="none" xmlns="http://www.w3.org/2000/svg">
<path d="M16.3881 7.10414C16.8954 5.54276 19.1044 5.54276 19.6117 7.10414L21.4243 12.6829C21.6512 13.3811 22.3019 13.8539 23.0361 13.8539H28.9019C30.5437 13.8539 31.2262 15.9547 29.8981 16.9197L25.1525 20.3675C24.5585 20.7991 24.31 21.564 24.5369 22.2623L26.3495 27.841C26.8568 29.4024 25.0698 30.7008 23.7416 29.7358L18.996 26.2879C18.4021 25.8564 17.5977 25.8564 17.0038 26.2879L12.2582 29.7358C10.93 30.7008 9.14298 29.4024 9.6503 27.841L11.4629 22.2623C11.6898 21.564 11.4413 20.7991 10.8473 20.3675L6.10174 16.9197C4.77356 15.9547 5.45616 13.8539 7.09788 13.8539H12.9637C13.6979 13.8539 14.3486 13.3811 14.5755 12.6829L16.3881 7.10414Z" fill="#1F2937"/>
</svg>
