<svg width="33" height="32" viewBox="0 0 33 32" fill="none" xmlns="http://www.w3.org/2000/svg">
<path d="M14.9668 3.1001C14.9668 2.27167 15.6384 1.6001 16.4668 1.6001C17.2952 1.6001 17.9668 2.27167 17.9668 3.1001V14.0586C18.6567 14.2748 19.3278 14.5676 19.9668 14.937V5.1001C19.9668 4.27167 20.6384 3.6001 21.4668 3.6001C22.2952 3.6001 22.9668 4.27167 22.9668 5.1001V19.6831C21.0763 20.0002 19.4856 21.2014 18.6343 22.8471C20.2407 22.0489 22.0513 21.6001 23.9668 21.6001C24.5191 21.6001 24.9668 21.1524 24.9668 20.6001V17.6001L24.9668 17.5783C24.9723 16.4362 25.412 15.2909 26.2848 14.4181C26.8706 13.8323 27.8203 13.8323 28.4061 14.4181C28.9919 15.0039 28.9919 15.9536 28.4061 16.5394C28.1148 16.8308 27.9687 17.2091 27.9668 17.5928L27.9667 17.6001L27.9668 21.6001H27.9606C27.8819 23.6078 27.0498 25.5171 25.6236 26.9432L23.3099 29.257C21.8096 30.7572 19.7748 31.6001 17.6531 31.6001H14.9668C9.44395 31.6001 4.9668 27.1229 4.9668 21.6001V9.1001C4.9668 8.27167 5.63837 7.6001 6.4668 7.6001C7.29522 7.6001 7.9668 8.27167 7.9668 9.1001V16.4587C8.58117 15.8562 9.254 15.349 9.9668 14.937V5.1001C9.9668 4.27167 10.6384 3.6001 11.4668 3.6001C12.2952 3.6001 12.9668 4.27167 12.9668 5.1001V13.801C13.6262 13.6671 14.2965 13.6001 14.9668 13.6001V3.1001Z" fill="#6F3F29"/>
</svg>
