<svg width="33" height="32" viewBox="0 0 33 32" fill="none" xmlns="http://www.w3.org/2000/svg">
<path d="M21.4997 11C22.052 11 22.4997 11.4477 22.4997 12C22.4997 13.4935 21.8436 14.835 20.8073 15.7497C20.3932 16.1152 19.7612 16.0758 19.3958 15.6617C19.0303 15.2477 19.0697 14.6157 19.4838 14.2503C20.1083 13.6991 20.4997 12.8959 20.4997 12C20.4997 11.4477 20.9474 11 21.4997 11Z" fill="#6F3F29"/>
<path fill-rule="evenodd" clip-rule="evenodd" d="M16.5 3C9.3203 3 3.5 8.8203 3.5 16C3.5 23.1797 9.3203 29 16.5 29C23.6797 29 29.5 23.1797 29.5 16C29.5 8.8203 23.6797 3 16.5 3ZM6.59987 20.8003C8.38261 24.4702 12.1459 27 16.5 27C17.383 27 18.2417 26.896 19.0645 26.6995C18.6819 25.6804 17.7058 25 16.6104 25C15.9697 25 15.4228 24.5367 15.3174 23.9047L15.2202 23.321C15.0947 22.5685 15.5541 21.8417 16.2877 21.6321L17.606 21.2554C18.1757 21.0927 18.6509 20.6983 18.9158 20.1684L18.9645 20.071C19.2927 19.4146 19.9636 19 20.6975 19C21.2113 19 21.7041 19.2041 22.0675 19.5675L22.5 20H23.3377C24.4558 20 25.4653 20.6195 25.9811 21.581C26.9463 19.9449 27.5 18.0371 27.5 16C27.5 10.2691 23.1174 5.56176 17.5209 5.04674C17.5799 5.39737 17.7624 5.71867 18.0397 5.94977L19.4645 7.13712C20.0534 7.62786 20.1776 8.48367 19.7523 9.1215L19.071 10.1436C18.7009 10.6986 18.1564 11.1145 17.5235 11.3255L17.3339 11.3887C16.4103 11.6966 16.0322 12.7984 16.5723 13.6084C17.0649 14.3473 16.7984 15.3508 16.0041 15.748L12.5 17.5L13.0645 18.9113C13.3107 19.5267 13.044 20.228 12.4512 20.5244C11.9004 20.7998 11.2314 20.6419 10.8619 20.1492L9.95623 18.9416C9.28719 18.0496 7.91327 18.1735 7.41459 19.1708L6.59987 20.8003Z" fill="#6F3F29"/>
</svg>
