<svg width="17" height="16" viewBox="0 0 17 16" fill="none" xmlns="http://www.w3.org/2000/svg">
<path d="M7.78365 3.15742C8.00913 2.46348 8.99088 2.46348 9.21635 3.15742L10.022 5.63685C10.1228 5.94719 10.412 6.15731 10.7383 6.15731H13.3453C14.075 6.15731 14.3784 7.09101 13.7881 7.51989L11.6789 9.05226C11.415 9.24406 11.3045 9.58404 11.4053 9.89438L12.2109 12.3738C12.4364 13.0678 11.6422 13.6448 11.0519 13.2159L8.94273 11.6836C8.67874 11.4918 8.32127 11.4918 8.05727 11.6836L5.94814 13.2159C5.35784 13.6448 4.56359 13.0678 4.78907 12.3738L5.59468 9.89438C5.69552 9.58404 5.58505 9.24406 5.32106 9.05226L3.21193 7.51989C2.62163 7.09101 2.925 6.15731 3.65466 6.15731H6.26169C6.588 6.15731 6.8772 5.94719 6.97804 5.63685L7.78365 3.15742Z" fill="#00C160"/>
</svg>
