<svg width="16" height="16" viewBox="0 0 16 16" fill="none" xmlns="http://www.w3.org/2000/svg">
<path d="M1.5 1.5C1.22386 1.5 1 1.72386 1 2C1 2.27614 1.22386 2.5 1.5 2.5H2.42379C2.53706 2.5 2.63617 2.57615 2.66535 2.68558L4.37051 9.07992C3.29452 9.35901 2.5 10.3367 2.5 11.5C2.5 11.7761 2.72386 12 3 12H13.5C13.7761 12 14 11.7761 14 11.5C14 11.2239 13.7761 11 13.5 11H3.58535C3.79127 10.4174 4.34689 10 5 10H12.4788C12.6701 10 12.8445 9.89093 12.9283 9.71903C13.6851 8.16602 14.3455 6.55735 14.9018 4.90084C14.9461 4.76905 14.9335 4.62478 14.867 4.50266C14.8005 4.38055 14.6862 4.29162 14.5515 4.25722C11.337 3.43628 7.96908 3 4.5 3C4.26145 3 4.02337 3.00206 3.78579 3.00617L3.63159 2.42792C3.48567 1.88073 2.9901 1.5 2.42379 1.5H1.5Z" fill="#6F3F29"/>
<path d="M2.5 13.5C2.5 12.9477 2.94772 12.5 3.5 12.5C4.05229 12.5 4.5 12.9477 4.5 13.5C4.5 14.0523 4.05229 14.5 3.5 14.5C2.94772 14.5 2.5 14.0523 2.5 13.5Z" fill="#6F3F29"/>
<path d="M11 13.5C11 12.9477 11.4477 12.5 12 12.5C12.5523 12.5 13 12.9477 13 13.5C13 14.0523 12.5523 14.5 12 14.5C11.4477 14.5 11 14.0523 11 13.5Z" fill="#6F3F29"/>
</svg>
