<svg width="13" height="12" viewBox="0 0 13 12" fill="none" xmlns="http://www.w3.org/2000/svg">
<path fill-rule="evenodd" clip-rule="evenodd" d="M6.5 1.80005C6.96392 1.80005 7.34 2.17613 7.34 2.64005V5.16005L9.86 5.16005C10.3239 5.16005 10.7 5.53613 10.7 6.00005C10.7 6.46397 10.3239 6.84005 9.86 6.84005H7.34V9.36005C7.34 9.82397 6.96392 10.2 6.5 10.2C6.03608 10.2 5.66 9.82397 5.66 9.36005V6.84005H3.14C2.67608 6.84005 2.3 6.46397 2.3 6.00005C2.3 5.53613 2.67608 5.16005 3.14 5.16005L5.66 5.16005V2.64005C5.66 2.17613 6.03608 1.80005 6.5 1.80005Z" fill="#1F2937"/>
</svg>
