<svg width="80" height="80" viewBox="0 0 80 80" fill="none" xmlns="http://www.w3.org/2000/svg">
<rect width="80" height="80" rx="6" fill="#FFE4E6"/>
<path d="M33.7792 52.7393H46.4914C46.4914 61.1623 39.6536 68 31.2306 68V55.2877C32.6603 55.2566 33.7792 54.1379 33.7792 52.7393Z" fill="#F43F5E"/>
<path d="M31.2608 55.2564V67.9688C22.8378 67.9688 16 61.1307 16 52.7077H28.7121C28.7121 54.1375 29.8311 55.2564 31.2608 55.2564Z" fill="#F43F5E"/>
<path d="M46.5213 27.2837H33.8091C33.8091 18.8607 40.6469 12.023 49.0699 12.023V24.735C47.6402 24.7661 46.5213 25.885 46.5213 27.2837Z" fill="#F43F5E"/>
<path d="M49.0397 24.766V12.0537C57.4627 12.0537 64.3005 18.8915 64.3005 27.3145H51.5883C51.5883 25.8847 50.4694 24.766 49.0397 24.766Z" fill="#F43F5E"/>
<path d="M46.4916 52.7393H33.7794V40.0269H46.4916V52.7393Z" fill="#F43F5E"/>
<path d="M46.4916 40.0269H33.7794V27.3145H46.4916V40.0269Z" fill="#F43F5E"/>
<path d="M64.3007 52.7393H51.5885V40.0269H64.3007V52.7393Z" fill="#F43F5E"/>
<path d="M64.3007 65.4512H51.5885V52.7392H64.3007V65.4512Z" fill="#F43F5E"/>
<path d="M64.3007 40.0269H51.5885V27.3145H64.3007V40.0269Z" fill="#F43F5E"/>
<path d="M28.7121 52.7393H16V40.0269H28.7121V52.7393Z" fill="#F43F5E"/>
<path d="M28.7121 40.0269H16V27.3145H28.7121V40.0269Z" fill="#F43F5E"/>
<path d="M28.7121 27.2837H16V14.5714H28.7121V27.2837Z" fill="#F43F5E"/>
</svg>
