<svg width="17" height="16" viewBox="0 0 17 16" fill="none" xmlns="http://www.w3.org/2000/svg">
<path d="M7.78364 3.15742C8.00912 2.46348 8.99087 2.46348 9.21634 3.15742L10.022 5.63685C10.1228 5.94719 10.412 6.15731 10.7383 6.15731H13.3453C14.075 6.15731 14.3784 7.09101 13.7881 7.51989L11.6789 9.05226C11.4149 9.24406 11.3045 9.58404 11.4053 9.89438L12.2109 12.3738C12.4364 13.0678 11.6422 13.6448 11.0519 13.2159L8.94272 11.6836C8.67873 11.4918 8.32126 11.4918 8.05727 11.6836L5.94814 13.2159C5.35783 13.6448 4.56358 13.0678 4.78906 12.3738L5.59467 9.89438C5.69551 9.58404 5.58504 9.24406 5.32105 9.05226L3.21192 7.51989C2.62162 7.09101 2.925 6.15731 3.65465 6.15731H6.26168C6.58799 6.15731 6.87719 5.94719 6.97803 5.63685L7.78364 3.15742Z" fill="#00C160"/>
</svg>
