<svg width="12" height="12" viewBox="0 0 12 12" fill="none" xmlns="http://www.w3.org/2000/svg">
<path fill-rule="evenodd" clip-rule="evenodd" d="M6.00005 1.80005C6.46397 1.80005 6.84005 2.17613 6.84005 2.64005V5.16005L9.36005 5.16005C9.82397 5.16005 10.2 5.53613 10.2 6.00005C10.2 6.46397 9.82397 6.84005 9.36005 6.84005H6.84005V9.36005C6.84005 9.82397 6.46397 10.2 6.00005 10.2C5.53613 10.2 5.16005 9.82397 5.16005 9.36005V6.84005H2.64005C2.17613 6.84005 1.80005 6.46397 1.80005 6.00005C1.80005 5.53613 2.17613 5.16005 2.64005 5.16005L5.16005 5.16005V2.64005C5.16005 2.17613 5.53613 1.80005 6.00005 1.80005Z" fill="#1F2937"/>
</svg>
