<svg width="80" height="80" viewBox="0 0 80 80" fill="none" xmlns="http://www.w3.org/2000/svg">
<rect width="80" height="80" rx="6" fill="#FFE4E6"/>
<path d="M33.7792 52.7393H46.4914C46.4914 61.1623 39.6536 68 31.2306 68V55.2877C32.6603 55.2566 33.7792 54.1379 33.7792 52.7393Z" fill="#F43F5E"/>
<path d="M31.2608 55.2567V67.969C22.8378 67.969 16 61.131 16 52.708H28.7121C28.7121 54.1377 29.8311 55.2567 31.2608 55.2567Z" fill="#F43F5E"/>
<path d="M46.5212 27.2837H33.809C33.809 18.8607 40.6469 12.023 49.0699 12.023V24.735C47.6401 24.7661 46.5212 25.885 46.5212 27.2837Z" fill="#F43F5E"/>
<path d="M49.0396 24.7663V12.054C57.4626 12.054 64.3005 18.8917 64.3005 27.3147H51.5883C51.5883 25.885 50.4694 24.7663 49.0396 24.7663Z" fill="#F43F5E"/>
<path d="M46.4917 52.7393H33.7795V40.0269H46.4917V52.7393Z" fill="#F43F5E"/>
<path d="M46.4917 40.0269H33.7795V27.3145H46.4917V40.0269Z" fill="#F43F5E"/>
<path d="M64.3007 52.7393H51.5885V40.0269H64.3007V52.7393Z" fill="#F43F5E"/>
<path d="M64.3007 65.4512H51.5885V52.7392H64.3007V65.4512Z" fill="#F43F5E"/>
<path d="M64.3007 40.0269H51.5885V27.3145H64.3007V40.0269Z" fill="#F43F5E"/>
<path d="M28.7121 52.7393H16V40.0269H28.7121V52.7393Z" fill="#F43F5E"/>
<path d="M28.7121 40.0269H16V27.3145H28.7121V40.0269Z" fill="#F43F5E"/>
<path d="M28.7121 27.2837H16V14.5714H28.7121V27.2837Z" fill="#F43F5E"/>
</svg>
