<svg width="48" height="48" viewBox="0 0 48 48" fill="none" xmlns="http://www.w3.org/2000/svg">
<path d="M31.4995 16.5C32.328 16.5 32.9995 17.1716 32.9995 18C32.9995 20.2403 32.0154 22.2525 30.4609 23.6246C29.8398 24.1728 28.8919 24.1137 28.3437 23.4926C27.7955 22.8715 27.8546 21.9236 28.4757 21.3754C29.4124 20.5486 29.9995 19.3438 29.9995 18C29.9995 17.1716 30.6711 16.5 31.4995 16.5Z" fill="#33FF99"/>
<path fill-rule="evenodd" clip-rule="evenodd" d="M24 4.5C13.2304 4.5 4.5 13.2304 4.5 24C4.5 34.7696 13.2304 43.5 24 43.5C34.7696 43.5 43.5 34.7696 43.5 24C43.5 13.2304 34.7696 4.5 24 4.5ZM9.1498 31.2004C11.8239 36.7053 17.4688 40.5 24 40.5C25.3245 40.5 26.6126 40.3439 27.8468 40.0492C27.2729 38.5206 25.8087 37.5 24.1656 37.5C23.2045 37.5 22.3842 36.8051 22.2262 35.857L22.0802 34.9815C21.8921 33.8527 22.5812 32.7625 23.6815 32.4481L25.659 31.8831C26.5135 31.639 27.2263 31.0474 27.6237 30.2526L27.6967 30.1066C28.189 29.1219 29.1954 28.5 30.2962 28.5C31.067 28.5 31.8062 28.8062 32.3512 29.3512L33 30H34.2566C35.9338 30 37.448 30.9293 38.2216 32.3715C39.6694 29.9173 40.5 27.0557 40.5 24C40.5 15.4036 33.9261 8.34264 25.5313 7.57011C25.6199 8.09605 25.8936 8.57801 26.3096 8.92465L28.4468 10.7057C29.3302 11.4418 29.5163 12.7255 28.8785 13.6822L27.8564 15.2153C27.3014 16.048 26.4846 16.6718 25.5352 16.9883L25.2508 17.0831C23.8654 17.5449 23.2984 19.1975 24.1084 20.4126C24.8473 21.521 24.4476 23.0262 23.2561 23.6219L18 26.25L18.8468 28.367C19.216 29.29 18.8161 30.342 17.9269 30.7866C17.1006 31.1997 16.0971 30.9628 15.5428 30.2238L14.1843 28.4125C13.1808 27.0744 11.1199 27.2602 10.3719 28.7562L9.1498 31.2004Z" fill="#33FF99"/>
</svg>
