<svg width="49" height="48" viewBox="0 0 49 48" fill="none" xmlns="http://www.w3.org/2000/svg">
<path d="M7.25 9C5.17893 9 3.5 10.6789 3.5 12.75V27H27.5V12.75C27.5 10.6789 25.8211 9 23.75 9H7.25Z" fill="#33FF99"/>
<path d="M27.5 30H3.5V35.25C3.5 37.3211 5.17893 39 7.25 39H8C8 35.6863 10.6863 33 14 33C17.3137 33 20 35.6863 20 39H26C26.8284 39 27.5 38.3284 27.5 37.5V30Z" fill="#33FF99"/>
<path d="M17 39C17 37.3431 15.6569 36 14 36C12.3431 36 11 37.3431 11 39C11 40.6569 12.3431 42 14 42C15.6569 42 17 40.6569 17 39Z" fill="#33FF99"/>
<path d="M32 13.5C31.1716 13.5 30.5 14.1716 30.5 15V37.5C30.5 37.6736 30.5295 37.8403 30.5837 37.9954C31.0617 35.16 33.5286 33 36.5 33C39.7883 33 42.4588 35.6453 42.4995 38.924C44.2062 38.5739 45.5448 37.0532 45.428 35.1589C44.962 27.5981 42.2551 20.642 37.9649 14.9498C37.256 14.0093 36.1531 13.5 35.0241 13.5H32Z" fill="#33FF99"/>
<path d="M39.5 39C39.5 37.3431 38.1568 36 36.5 36C34.8431 36 33.5 37.3431 33.5 39C33.5 40.6569 34.8431 42 36.5 42C38.1569 42 39.5 40.6569 39.5 39Z" fill="#33FF99"/>
</svg>
