<svg width="84" height="84" viewBox="0 0 84 84" fill="none" xmlns="http://www.w3.org/2000/svg">
<g filter="url(#filter0_dd_2181_72)">
<rect x="2" y="1" width="80" height="80" rx="6" fill="#FEE2E2"/>
<path d="M42 69C57.464 69 70 56.464 70 41C70 25.536 57.464 13 42 13C26.536 13 14 25.536 14 41C14 56.464 26.536 69 42 69Z" fill="#EF4444"/>
<path d="M42.0006 69.0001C52.3099 69.0001 60.6673 60.6427 60.6673 50.3334C60.6673 40.0241 52.3099 31.6667 42.0006 31.6667C31.6913 31.6667 23.3339 40.0241 23.3339 50.3334C23.3339 60.6427 31.6913 69.0001 42.0006 69.0001Z" fill="#FEE2E2"/>
<path d="M41.9994 68.9999C47.1541 68.9999 51.3328 64.8212 51.3328 59.6666C51.3328 54.5119 47.1541 50.3333 41.9994 50.3333C36.8448 50.3333 32.6661 54.5119 32.6661 59.6666C32.6661 64.8212 36.8448 68.9999 41.9994 68.9999Z" fill="#7F1D1D"/>
</g>
<defs>
<filter id="filter0_dd_2181_72" x="0" y="0" width="84" height="84" filterUnits="userSpaceOnUse" color-interpolation-filters="sRGB">
<feFlood flood-opacity="0" result="BackgroundImageFix"/>
<feColorMatrix in="SourceAlpha" type="matrix" values="0 0 0 0 0 0 0 0 0 0 0 0 0 0 0 0 0 0 127 0" result="hardAlpha"/>
<feOffset dy="1"/>
<feGaussianBlur stdDeviation="1"/>
<feColorMatrix type="matrix" values="0 0 0 0 0.0627451 0 0 0 0 0.0941176 0 0 0 0 0.156863 0 0 0 0.04 0"/>
<feBlend mode="normal" in2="BackgroundImageFix" result="effect1_dropShadow_2181_72"/>
<feColorMatrix in="SourceAlpha" type="matrix" values="0 0 0 0 0 0 0 0 0 0 0 0 0 0 0 0 0 0 127 0" result="hardAlpha"/>
<feOffset dy="1"/>
<feGaussianBlur stdDeviation="1"/>
<feColorMatrix type="matrix" values="0 0 0 0 0.0627451 0 0 0 0 0.0941176 0 0 0 0 0.156863 0 0 0 0.04 0"/>
<feBlend mode="normal" in2="effect1_dropShadow_2181_72" result="effect2_dropShadow_2181_72"/>
<feBlend mode="normal" in="SourceGraphic" in2="effect2_dropShadow_2181_72" result="shape"/>
</filter>
</defs>
</svg>
