<svg width="28" height="28" viewBox="0 0 28 28" fill="none" xmlns="http://www.w3.org/2000/svg">
<path d="M12.7463 5.52555C13.1409 4.31114 14.859 4.31115 15.2536 5.52555L16.6634 9.86455C16.8399 10.4076 17.346 10.7754 17.917 10.7754H22.4793C23.7562 10.7754 24.2871 12.4093 23.2541 13.1599L19.5631 15.8415C19.1011 16.1772 18.9078 16.7721 19.0843 17.3152L20.4941 21.6542C20.8887 22.8686 19.4987 23.8785 18.4657 23.1279L14.7747 20.4463C14.3127 20.1106 13.6872 20.1106 13.2252 20.4463L9.5342 23.1279C8.50117 23.8785 7.11123 22.8686 7.50581 21.6542L8.91564 17.3152C9.0921 16.7721 8.89879 16.1772 8.4368 15.8415L4.74583 13.1599C3.7128 12.4093 4.2437 10.7754 5.5206 10.7754H10.0829C10.6539 10.7754 11.16 10.4076 11.3365 9.86455L12.7463 5.52555Z" fill="#00C160"/>
</svg>
