<svg width="21" height="20" viewBox="0 0 21 20" fill="none" xmlns="http://www.w3.org/2000/svg">
<path fill-rule="evenodd" clip-rule="evenodd" d="M8.91669 4.75C6.98369 4.75 5.41669 6.317 5.41669 8.25C5.41669 10.183 6.98369 11.75 8.91669 11.75C10.8497 11.75 12.4167 10.183 12.4167 8.25C12.4167 6.317 10.8497 4.75 8.91669 4.75ZM3.66669 8.25C3.66669 5.35051 6.01719 3 8.91669 3C11.8162 3 14.1667 5.35051 14.1667 8.25C14.1667 9.38385 13.8072 10.4338 13.1961 11.292L17.4104 15.5063C17.7521 15.848 17.7521 16.402 17.4104 16.7437C17.0687 17.0854 16.5147 17.0854 16.173 16.7437L11.9587 12.5294C11.1004 13.1406 10.0505 13.5 8.91669 13.5C6.01719 13.5 3.66669 11.1495 3.66669 8.25Z" fill="#6F3F29"/>
</svg>
