<svg width="33" height="32" viewBox="0 0 33 32" fill="none" xmlns="http://www.w3.org/2000/svg">
<path d="M5 6C3.61929 6 2.5 7.11929 2.5 8.5V18H18.5V8.5C18.5 7.11929 17.3807 6 16 6H5Z" fill="#6F3F29"/>
<path d="M18.5 20H2.5V23.5C2.5 24.8807 3.61929 26 5 26H5.5C5.5 23.7909 7.29086 22 9.5 22C11.7091 22 13.5 23.7909 13.5 26H17.5C18.0523 26 18.5 25.5523 18.5 25V20Z" fill="#6F3F29"/>
<path d="M11.5 26C11.5 24.8954 10.6046 24 9.5 24C8.39543 24 7.5 24.8954 7.5 26C7.5 27.1046 8.39543 28 9.5 28C10.6046 28 11.5 27.1046 11.5 26Z" fill="#6F3F29"/>
<path d="M21.5 9C20.9477 9 20.5 9.44772 20.5 10V25C20.5 25.1157 20.5197 25.2269 20.5558 25.3303C20.8745 23.44 22.5191 22 24.5 22C26.6922 22 28.4725 23.7635 28.4997 25.9493C29.6375 25.7159 30.5299 24.7021 30.452 23.4392C30.1414 18.3987 28.3367 13.7614 25.4766 9.96653C25.004 9.3395 24.2687 9 23.5161 9H21.5Z" fill="#6F3F29"/>
<path d="M26.5 26C26.5 24.8954 25.6046 24 24.5 24C23.3954 24 22.5 24.8954 22.5 26C22.5 27.1046 23.3954 28 24.5 28C25.6046 28 26.5 27.1046 26.5 26Z" fill="#6F3F29"/>
</svg>
