<svg width="33" height="32" viewBox="0 0 33 32" fill="none" xmlns="http://www.w3.org/2000/svg">
<path fill-rule="evenodd" clip-rule="evenodd" d="M11.5 9C11.5 6.23858 13.7386 4 16.5 4C19.2614 4 21.5 6.23858 21.5 9C21.5 11.7614 19.2614 14 16.5 14C13.7386 14 11.5 11.7614 11.5 9Z" fill="#6F3F29"/>
<path fill-rule="evenodd" clip-rule="evenodd" d="M21.5 13C21.5 10.7909 23.2909 9 25.5 9C27.7091 9 29.5 10.7909 29.5 13C29.5 15.2091 27.7091 17 25.5 17C23.2909 17 21.5 15.2091 21.5 13Z" fill="#6F3F29"/>
<path fill-rule="evenodd" clip-rule="evenodd" d="M3.5 13C3.5 10.7909 5.29086 9 7.5 9C9.70914 9 11.5 10.7909 11.5 13C11.5 15.2091 9.70914 17 7.5 17C5.29086 17 3.5 15.2091 3.5 13Z" fill="#6F3F29"/>
<path fill-rule="evenodd" clip-rule="evenodd" d="M8.91315 20.1567C10.5104 17.6592 13.3111 16 16.5 16C19.6893 16 22.4903 17.6596 24.0875 20.1576C25.1917 21.8846 25.6694 23.9669 25.4453 25.9972C25.4103 26.3145 25.2259 26.596 24.949 26.7549C22.4592 28.1835 19.5734 29 16.5 29C13.4266 29 10.5408 28.1835 8.05099 26.7549C7.77412 26.596 7.58973 26.3145 7.55471 25.9972C7.33058 23.9665 7.80855 21.8838 8.91315 20.1567Z" fill="#6F3F29"/>
<path d="M7.27638 19.0049C7.26032 19.0296 7.24436 19.0543 7.2285 19.0791C5.94122 21.0919 5.35211 23.4889 5.53295 25.852C4.72222 25.7289 3.9356 25.5308 3.18057 25.2649L3.02729 25.2109C2.74768 25.1124 2.5523 24.8585 2.52879 24.563L2.5159 24.401C2.50536 24.2685 2.5 24.1348 2.5 24C2.5 21.3135 4.61873 19.1219 7.27638 19.0049Z" fill="#6F3F29"/>
<path d="M27.4675 25.8519C27.6483 23.4893 27.0595 21.0928 25.7727 19.0802C25.7566 19.0551 25.7404 19.03 25.7241 19.0049C28.3815 19.1222 30.5 21.3137 30.5 24C30.5 24.1348 30.4946 24.2685 30.4841 24.401L30.4712 24.563C30.4477 24.8585 30.2523 25.1124 29.9727 25.2109L29.8194 25.2649C29.0645 25.5307 28.2781 25.7288 27.4675 25.8519Z" fill="#6F3F29"/>
</svg>
