<svg width="12" height="14" viewBox="0 0 12 14" fill="none" xmlns="http://www.w3.org/2000/svg">
<path fill-rule="evenodd" clip-rule="evenodd" d="M3.00004 3C3.00004 1.34315 4.34318 0 6.00004 0C7.65689 0 9.00004 1.34315 9.00004 3C9.00004 4.65685 7.65689 6 6.00004 6C4.34318 6 3.00004 4.65685 3.00004 3Z" fill="#6F3F29"/>
<path fill-rule="evenodd" clip-rule="evenodd" d="M0.500868 12.4036C0.552428 9.41038 2.99469 7 6.00004 7C9.00545 7 11.4478 9.41049 11.4992 12.4038C11.5026 12.6023 11.3883 12.784 11.2078 12.8668C9.62185 13.5945 7.85772 14 6.00025 14C4.14261 14 2.37833 13.5945 0.792252 12.8666C0.611805 12.7838 0.497449 12.6021 0.500868 12.4036Z" fill="#6F3F29"/>
</svg>
